# MagicaVoxel @ Ephtracy

# group
g hatchet

# material
mtllib hatchet.mtl
usemtl palette

# normals
vn -1 0 0
vn 1 0 0
vn 0 0 1
vn 0 0 -1
vn 0 -1 0
vn 0 1 0

# texcoords
vt 0.873047 0.5
vt 0.982422 0.5
vt 0.986328 0.5

# verts
v -1.5 15 -0
v -1.5 15 -2
v -1.5 18 -0
v -1.5 18 -2
v -0.5 0 -0
v -0.5 0 -2
v -0.5 2 1
v -0.5 2 -0
v -0.5 2 -1
v -0.5 2 -2
v -0.5 9 -1
v -0.5 9 -2
v -0.5 10 1
v -0.5 10 -0
v -0.5 12 2
v -0.5 12 1
v -0.5 13 3
v -0.5 13 2
v -0.5 13 1
v -0.5 15 1
v -0.5 15 -0
v -0.5 15 -2
v -0.5 15 -3
v -0.5 18 1
v -0.5 18 -0
v -0.5 18 -2
v -0.5 18 -3
v -0.5 19 3
v -0.5 19 2
v -0.5 19 1
v -0.5 19 -0
v -0.5 19 -2
v 0.5 0 -0
v 0.5 0 -2
v 0.5 2 1
v 0.5 2 -0
v 0.5 2 -1
v 0.5 2 -2
v 0.5 9 -1
v 0.5 9 -2
v 0.5 10 1
v 0.5 10 -0
v 0.5 12 2
v 0.5 12 1
v 0.5 13 3
v 0.5 13 2
v 0.5 13 1
v 0.5 15 1
v 0.5 15 -0
v 0.5 15 -2
v 0.5 15 -3
v 0.5 18 1
v 0.5 18 -0
v 0.5 18 -2
v 0.5 18 -3
v 0.5 19 3
v 0.5 19 2
v 0.5 19 1
v 0.5 19 -0
v 0.5 19 -2
v 1.5 15 -0
v 1.5 15 -2
v 1.5 18 -0
v 1.5 18 -2
v -0.5 13 3
v -0.5 19 3
v 0.5 13 3
v 0.5 19 3
v -0.5 12 2
v -0.5 13 2
v 0.5 12 2
v 0.5 13 2
v -0.5 2 1
v -0.5 10 1
v 0.5 2 1
v 0.5 10 1
v -1.5 15 -0
v -1.5 18 -0
v -0.5 0 -0
v -0.5 2 -0
v -0.5 10 -0
v -0.5 15 -0
v -0.5 18 -0
v -0.5 19 -0
v 0.5 0 -0
v 0.5 2 -0
v 0.5 10 -0
v 0.5 15 -0
v 0.5 18 -0
v 0.5 19 -0
v 1.5 15 -0
v 1.5 18 -0
v -0.5 12 1
v -0.5 13 1
v -0.5 15 1
v -0.5 18 1
v -0.5 19 1
v 0.5 12 1
v 0.5 13 1
v 0.5 15 1
v 0.5 18 1
v 0.5 19 1
v -0.5 2 -1
v -0.5 9 -1
v 0.5 2 -1
v 0.5 9 -1
v -1.5 15 -2
v -1.5 18 -2
v -0.5 0 -2
v -0.5 2 -2
v -0.5 9 -2
v -0.5 15 -2
v -0.5 18 -2
v -0.5 19 -2
v 0.5 0 -2
v 0.5 2 -2
v 0.5 9 -2
v 0.5 15 -2
v 0.5 18 -2
v 0.5 19 -2
v 1.5 15 -2
v 1.5 18 -2
v -0.5 15 -3
v -0.5 18 -3
v 0.5 15 -3
v 0.5 18 -3
v -0.5 0 -0
v 0.5 0 -0
v -0.5 0 -2
v 0.5 0 -2
v -0.5 2 1
v 0.5 2 1
v -0.5 2 -0
v 0.5 2 -0
v -0.5 9 -1
v 0.5 9 -1
v -0.5 9 -2
v 0.5 9 -2
v -0.5 12 2
v 0.5 12 2
v -0.5 12 1
v 0.5 12 1
v -0.5 13 3
v 0.5 13 3
v -0.5 13 2
v 0.5 13 2
v -0.5 15 1
v 0.5 15 1
v -1.5 15 -0
v -0.5 15 -0
v 0.5 15 -0
v 1.5 15 -0
v -1.5 15 -2
v -0.5 15 -2
v 0.5 15 -2
v 1.5 15 -2
v -0.5 15 -3
v 0.5 15 -3
v -0.5 2 -1
v 0.5 2 -1
v -0.5 2 -2
v 0.5 2 -2
v -0.5 10 1
v 0.5 10 1
v -0.5 10 -0
v 0.5 10 -0
v -0.5 18 1
v 0.5 18 1
v -1.5 18 -0
v -0.5 18 -0
v 0.5 18 -0
v 1.5 18 -0
v -1.5 18 -2
v -0.5 18 -2
v 0.5 18 -2
v 1.5 18 -2
v -0.5 18 -3
v 0.5 18 -3
v -0.5 19 3
v 0.5 19 3
v -0.5 19 2
v 0.5 19 2
v -0.5 19 1
v 0.5 19 1
v -0.5 19 -0
v 0.5 19 -0
v -0.5 19 -2
v 0.5 19 -2

# faces
f 3/3/1 2/3/1 1/3/1
f 4/3/1 2/3/1 3/3/1
f 8/1/1 6/1/1 5/1/1
f 9/1/1 6/1/1 8/1/1
f 10/1/1 6/1/1 9/1/1
f 11/1/1 8/1/1 7/1/1
f 11/1/1 9/1/1 8/1/1
f 13/1/1 11/1/1 7/1/1
f 13/1/1 12/1/1 11/1/1
f 14/1/1 12/1/1 13/1/1
f 18/2/1 16/2/1 15/2/1
f 19/2/1 16/2/1 18/2/1
f 20/3/1 19/3/1 18/3/1
f 21/1/1 12/1/1 14/1/1
f 22/1/1 12/1/1 21/1/1
f 24/3/1 20/3/1 18/3/1
f 24/3/1 21/3/1 20/3/1
f 25/3/1 21/3/1 24/3/1
f 26/3/1 23/3/1 22/3/1
f 27/3/1 23/3/1 26/3/1
f 28/2/1 18/2/1 17/2/1
f 29/3/1 24/3/1 18/3/1
f 29/2/1 18/2/1 28/2/1
f 30/3/1 24/3/1 29/3/1
f 31/1/1 26/1/1 25/1/1
f 32/1/1 26/1/1 31/1/1
f 33/1/2 34/1/2 36/1/2
f 36/1/2 34/1/2 37/1/2
f 37/1/2 34/1/2 38/1/2
f 35/1/2 36/1/2 39/1/2
f 36/1/2 37/1/2 39/1/2
f 35/1/2 39/1/2 41/1/2
f 39/1/2 40/1/2 41/1/2
f 41/1/2 40/1/2 42/1/2
f 43/2/2 44/2/2 46/2/2
f 46/2/2 44/2/2 47/2/2
f 46/3/2 47/3/2 48/3/2
f 42/1/2 40/1/2 49/1/2
f 49/1/2 40/1/2 50/1/2
f 46/3/2 48/3/2 52/3/2
f 48/3/2 49/3/2 52/3/2
f 52/3/2 49/3/2 53/3/2
f 50/3/2 51/3/2 54/3/2
f 54/3/2 51/3/2 55/3/2
f 45/2/2 46/2/2 56/2/2
f 46/3/2 52/3/2 57/3/2
f 56/2/2 46/2/2 57/2/2
f 57/3/2 52/3/2 58/3/2
f 53/1/2 54/1/2 59/1/2
f 59/1/2 54/1/2 60/1/2
f 61/3/2 62/3/2 63/3/2
f 63/3/2 62/3/2 64/3/2
f 67/2/3 66/2/3 65/2/3
f 68/2/3 66/2/3 67/2/3
f 71/2/3 70/2/3 69/2/3
f 72/2/3 70/2/3 71/2/3
f 75/1/3 74/1/3 73/1/3
f 76/1/3 74/1/3 75/1/3
f 82/3/3 78/3/3 77/3/3
f 83/3/3 78/3/3 82/3/3
f 85/1/3 80/1/3 79/1/3
f 86/1/3 80/1/3 85/1/3
f 87/1/3 82/1/3 81/1/3
f 88/1/3 82/1/3 87/1/3
f 89/1/3 84/1/3 83/1/3
f 90/1/3 84/1/3 89/1/3
f 91/3/3 89/3/3 88/3/3
f 92/3/3 89/3/3 91/3/3
f 93/2/4 94/2/4 98/2/4
f 94/3/4 95/3/4 99/3/4
f 98/2/4 94/2/4 99/2/4
f 99/3/4 95/3/4 100/3/4
f 96/3/4 97/3/4 101/3/4
f 101/3/4 97/3/4 102/3/4
f 103/1/4 104/1/4 105/1/4
f 105/1/4 104/1/4 106/1/4
f 107/3/4 108/3/4 112/3/4
f 112/3/4 108/3/4 113/3/4
f 109/1/4 110/1/4 115/1/4
f 115/1/4 110/1/4 116/1/4
f 111/1/4 112/1/4 117/1/4
f 117/1/4 112/1/4 118/1/4
f 113/1/4 114/1/4 119/1/4
f 119/1/4 114/1/4 120/1/4
f 118/3/4 119/3/4 121/3/4
f 121/3/4 119/3/4 122/3/4
f 123/3/4 124/3/4 125/3/4
f 125/3/4 124/3/4 126/3/4
f 129/1/5 128/1/5 127/1/5
f 130/1/5 128/1/5 129/1/5
f 133/1/5 132/1/5 131/1/5
f 134/1/5 132/1/5 133/1/5
f 137/1/5 136/1/5 135/1/5
f 138/1/5 136/1/5 137/1/5
f 141/2/5 140/2/5 139/2/5
f 142/2/5 140/2/5 141/2/5
f 145/2/5 144/2/5 143/2/5
f 146/2/5 144/2/5 145/2/5
f 150/3/5 148/3/5 147/3/5
f 151/3/5 148/3/5 150/3/5
f 153/3/5 150/3/5 149/3/5
f 154/3/5 150/3/5 153/3/5
f 155/3/5 152/3/5 151/3/5
f 156/3/5 152/3/5 155/3/5
f 157/3/5 155/3/5 154/3/5
f 158/3/5 155/3/5 157/3/5
f 159/1/6 160/1/6 161/1/6
f 161/1/6 160/1/6 162/1/6
f 163/1/6 164/1/6 165/1/6
f 165/1/6 164/1/6 166/1/6
f 167/3/6 168/3/6 170/3/6
f 170/3/6 168/3/6 171/3/6
f 169/3/6 170/3/6 173/3/6
f 173/3/6 170/3/6 174/3/6
f 171/3/6 172/3/6 175/3/6
f 175/3/6 172/3/6 176/3/6
f 174/3/6 175/3/6 177/3/6
f 177/3/6 175/3/6 178/3/6
f 179/2/6 180/2/6 181/2/6
f 181/2/6 180/2/6 182/2/6
f 181/3/6 182/3/6 183/3/6
f 183/3/6 182/3/6 184/3/6
f 185/1/6 186/1/6 187/1/6
f 187/1/6 186/1/6 188/1/6
