# MagicaVoxel @ Ephtracy

# group
g bridge-x

# material
mtllib bridge-x.mtl
usemtl palette

# normals
vn -1 0 0
vn 1 0 0
vn 0 0 1
vn 0 0 -1
vn 0 -1 0
vn 0 1 0

# texcoords
vt 0.966797 0.5
vt 0.986328 0.5

# verts
v -18 0 14
v -18 0 -14
v -18 1 14
v -18 1 -14
v -18 2 14
v -18 2 13
v -18 2 -13
v -18 2 -14
v -18 3 14
v -18 3 13
v -18 3 -13
v -18 3 -14
v -15 0 15
v -15 0 14
v -15 0 -14
v -15 0 -15
v -15 1 14
v -15 1 12
v -15 1 -12
v -15 1 -14
v -15 2 14
v -15 2 13
v -15 2 -13
v -15 2 -14
v -15 3 15
v -15 3 14
v -15 3 13
v -15 3 12
v -15 3 -12
v -15 3 -13
v -15 3 -14
v -15 3 -15
v -14 0 18
v -14 0 15
v -14 0 -15
v -14 0 -18
v -14 1 18
v -14 1 15
v -14 1 -15
v -14 1 -18
v -14 2 18
v -14 2 15
v -14 2 -15
v -14 2 -18
v -14 3 18
v -14 3 15
v -14 3 -15
v -14 3 -18
v 12 1 15
v 12 1 12
v 12 1 -12
v 12 1 -15
v 12 3 15
v 12 3 12
v 12 3 -12
v 12 3 -15
v 13 2 18
v 13 2 15
v 13 2 -15
v 13 2 -18
v 13 3 18
v 13 3 15
v 13 3 -15
v 13 3 -18
v -13 2 18
v -13 2 15
v -13 2 -15
v -13 2 -18
v -13 3 18
v -13 3 15
v -13 3 -15
v -13 3 -18
v -12 1 15
v -12 1 12
v -12 1 -12
v -12 1 -15
v -12 3 15
v -12 3 12
v -12 3 -12
v -12 3 -15
v 14 0 18
v 14 0 15
v 14 0 -15
v 14 0 -18
v 14 1 18
v 14 1 15
v 14 1 -15
v 14 1 -18
v 14 2 18
v 14 2 15
v 14 2 -15
v 14 2 -18
v 14 3 18
v 14 3 15
v 14 3 -15
v 14 3 -18
v 15 0 15
v 15 0 14
v 15 0 -14
v 15 0 -15
v 15 1 14
v 15 1 12
v 15 1 -12
v 15 1 -14
v 15 2 14
v 15 2 13
v 15 2 -13
v 15 2 -14
v 15 3 15
v 15 3 14
v 15 3 13
v 15 3 12
v 15 3 -12
v 15 3 -13
v 15 3 -14
v 15 3 -15
v 18 0 14
v 18 0 -14
v 18 1 14
v 18 1 -14
v 18 2 14
v 18 2 13
v 18 2 -13
v 18 2 -14
v 18 3 14
v 18 3 13
v 18 3 -13
v 18 3 -14
v -14 0 18
v -14 1 18
v -14 2 18
v -14 3 18
v -13 2 18
v -13 3 18
v 13 2 18
v 13 3 18
v 14 0 18
v 14 1 18
v 14 2 18
v 14 3 18
v -15 0 15
v -15 3 15
v -14 0 15
v -14 1 15
v -14 2 15
v -14 3 15
v -13 2 15
v -13 3 15
v -12 1 15
v -12 3 15
v 12 1 15
v 12 3 15
v 13 2 15
v 13 3 15
v 14 0 15
v 14 1 15
v 14 2 15
v 14 3 15
v 15 0 15
v 15 3 15
v -18 0 14
v -18 1 14
v -18 2 14
v -18 3 14
v -15 0 14
v -15 1 14
v -15 2 14
v -15 3 14
v 15 0 14
v 15 1 14
v 15 2 14
v 15 3 14
v 18 0 14
v 18 1 14
v 18 2 14
v 18 3 14
v -15 1 -12
v -15 3 -12
v -12 1 -12
v -12 3 -12
v 12 1 -12
v 12 3 -12
v 15 1 -12
v 15 3 -12
v -18 2 -13
v -18 3 -13
v -15 2 -13
v -15 3 -13
v 15 2 -13
v 15 3 -13
v 18 2 -13
v 18 3 -13
v -18 2 13
v -18 3 13
v -15 2 13
v -15 3 13
v 15 2 13
v 15 3 13
v 18 2 13
v 18 3 13
v -15 1 12
v -15 3 12
v -12 1 12
v -12 3 12
v 12 1 12
v 12 3 12
v 15 1 12
v 15 3 12
v -18 0 -14
v -18 1 -14
v -18 2 -14
v -18 3 -14
v -15 0 -14
v -15 1 -14
v -15 2 -14
v -15 3 -14
v 15 0 -14
v 15 1 -14
v 15 2 -14
v 15 3 -14
v 18 0 -14
v 18 1 -14
v 18 2 -14
v 18 3 -14
v -15 0 -15
v -15 3 -15
v -14 0 -15
v -14 1 -15
v -14 2 -15
v -14 3 -15
v -13 2 -15
v -13 3 -15
v -12 1 -15
v -12 3 -15
v 12 1 -15
v 12 3 -15
v 13 2 -15
v 13 3 -15
v 14 0 -15
v 14 1 -15
v 14 2 -15
v 14 3 -15
v 15 0 -15
v 15 3 -15
v -14 0 -18
v -14 1 -18
v -14 2 -18
v -14 3 -18
v -13 2 -18
v -13 3 -18
v 13 2 -18
v 13 3 -18
v 14 0 -18
v 14 1 -18
v 14 2 -18
v 14 3 -18
v -14 0 18
v 14 0 18
v -15 0 15
v -14 0 15
v 14 0 15
v 15 0 15
v -18 0 14
v -15 0 14
v 15 0 14
v 18 0 14
v -18 0 -14
v -15 0 -14
v 15 0 -14
v 18 0 -14
v -15 0 -15
v -14 0 -15
v 14 0 -15
v 15 0 -15
v -14 0 -18
v 14 0 -18
v -14 2 18
v -13 2 18
v 13 2 18
v 14 2 18
v -14 2 15
v -13 2 15
v 13 2 15
v 14 2 15
v -18 2 14
v -15 2 14
v 15 2 14
v 18 2 14
v -18 2 13
v -15 2 13
v 15 2 13
v 18 2 13
v -18 2 -13
v -15 2 -13
v 15 2 -13
v 18 2 -13
v -18 2 -14
v -15 2 -14
v 15 2 -14
v 18 2 -14
v -14 2 -15
v -13 2 -15
v 13 2 -15
v 14 2 -15
v -14 2 -18
v -13 2 -18
v 13 2 -18
v 14 2 -18
v -14 1 18
v 14 1 18
v -14 1 15
v -12 1 15
v 12 1 15
v 14 1 15
v -18 1 14
v -15 1 14
v 15 1 14
v 18 1 14
v -15 1 12
v -12 1 12
v 12 1 12
v 15 1 12
v -15 1 -12
v -12 1 -12
v 12 1 -12
v 15 1 -12
v -18 1 -14
v -15 1 -14
v 15 1 -14
v 18 1 -14
v -14 1 -15
v -12 1 -15
v 12 1 -15
v 14 1 -15
v -14 1 -18
v 14 1 -18
v -14 3 18
v -13 3 18
v 13 3 18
v 14 3 18
v -15 3 15
v -14 3 15
v -13 3 15
v -12 3 15
v 12 3 15
v 13 3 15
v 14 3 15
v 15 3 15
v -18 3 14
v -15 3 14
v 15 3 14
v 18 3 14
v -18 3 13
v -15 3 13
v 15 3 13
v 18 3 13
v -15 3 12
v -12 3 12
v 12 3 12
v 15 3 12
v -15 3 -12
v -12 3 -12
v 12 3 -12
v 15 3 -12
v -18 3 -13
v -15 3 -13
v 15 3 -13
v 18 3 -13
v -18 3 -14
v -15 3 -14
v 15 3 -14
v 18 3 -14
v -15 3 -15
v -14 3 -15
v -13 3 -15
v -12 3 -15
v 12 3 -15
v 13 3 -15
v 14 3 -15
v 15 3 -15
v -14 3 -18
v -13 3 -18
v 13 3 -18
v 14 3 -18

# faces
f 3/1/1 2/1/1 1/1/1
f 4/1/1 2/1/1 3/1/1
f 9/2/1 6/2/1 5/2/1
f 10/2/1 6/2/1 9/2/1
f 11/2/1 8/2/1 7/2/1
f 12/2/1 8/2/1 11/2/1
f 17/1/1 14/1/1 13/1/1
f 20/1/1 16/1/1 15/1/1
f 21/1/1 18/1/1 17/1/1
f 21/1/1 17/1/1 13/1/1
f 22/1/1 18/1/1 21/1/1
f 23/1/1 20/1/1 19/1/1
f 24/1/1 16/1/1 20/1/1
f 24/1/1 20/1/1 23/1/1
f 25/1/1 21/1/1 13/1/1
f 26/1/1 21/1/1 25/1/1
f 27/1/1 18/1/1 22/1/1
f 28/1/1 18/1/1 27/1/1
f 29/1/1 23/1/1 19/1/1
f 30/1/1 23/1/1 29/1/1
f 31/1/1 16/1/1 24/1/1
f 32/1/1 16/1/1 31/1/1
f 37/1/1 34/1/1 33/1/1
f 38/1/1 34/1/1 37/1/1
f 39/1/1 36/1/1 35/1/1
f 40/1/1 36/1/1 39/1/1
f 45/2/1 42/2/1 41/2/1
f 46/2/1 42/2/1 45/2/1
f 47/2/1 44/2/1 43/2/1
f 48/2/1 44/2/1 47/2/1
f 53/1/1 50/1/1 49/1/1
f 54/1/1 50/1/1 53/1/1
f 55/1/1 52/1/1 51/1/1
f 56/1/1 52/1/1 55/1/1
f 61/2/1 58/2/1 57/2/1
f 62/2/1 58/2/1 61/2/1
f 63/2/1 60/2/1 59/2/1
f 64/2/1 60/2/1 63/2/1
f 65/2/2 66/2/2 69/2/2
f 69/2/2 66/2/2 70/2/2
f 67/2/2 68/2/2 71/2/2
f 71/2/2 68/2/2 72/2/2
f 73/1/2 74/1/2 77/1/2
f 77/1/2 74/1/2 78/1/2
f 75/1/2 76/1/2 79/1/2
f 79/1/2 76/1/2 80/1/2
f 81/1/2 82/1/2 85/1/2
f 85/1/2 82/1/2 86/1/2
f 83/1/2 84/1/2 87/1/2
f 87/1/2 84/1/2 88/1/2
f 89/2/2 90/2/2 93/2/2
f 93/2/2 90/2/2 94/2/2
f 91/2/2 92/2/2 95/2/2
f 95/2/2 92/2/2 96/2/2
f 97/1/2 98/1/2 101/1/2
f 99/1/2 100/1/2 104/1/2
f 101/1/2 102/1/2 105/1/2
f 97/1/2 101/1/2 105/1/2
f 105/1/2 102/1/2 106/1/2
f 103/1/2 104/1/2 107/1/2
f 104/1/2 100/1/2 108/1/2
f 107/1/2 104/1/2 108/1/2
f 97/1/2 105/1/2 109/1/2
f 109/1/2 105/1/2 110/1/2
f 106/1/2 102/1/2 111/1/2
f 111/1/2 102/1/2 112/1/2
f 103/1/2 107/1/2 113/1/2
f 113/1/2 107/1/2 114/1/2
f 108/1/2 100/1/2 115/1/2
f 115/1/2 100/1/2 116/1/2
f 117/1/2 118/1/2 119/1/2
f 119/1/2 118/1/2 120/1/2
f 121/2/2 122/2/2 125/2/2
f 125/2/2 122/2/2 126/2/2
f 123/2/2 124/2/2 127/2/2
f 127/2/2 124/2/2 128/2/2
f 133/2/3 132/2/3 131/2/3
f 134/2/3 132/2/3 133/2/3
f 137/1/3 130/1/3 129/1/3
f 138/1/3 130/1/3 137/1/3
f 139/2/3 136/2/3 135/2/3
f 140/2/3 136/2/3 139/2/3
f 143/1/3 142/1/3 141/1/3
f 144/1/3 142/1/3 143/1/3
f 145/1/3 142/1/3 144/1/3
f 146/1/3 142/1/3 145/1/3
f 147/1/3 145/1/3 144/1/3
f 149/1/3 147/1/3 144/1/3
f 149/1/3 148/1/3 147/1/3
f 150/1/3 148/1/3 149/1/3
f 153/1/3 152/1/3 151/1/3
f 154/1/3 152/1/3 153/1/3
f 156/1/3 153/1/3 151/1/3
f 157/1/3 153/1/3 156/1/3
f 159/1/3 156/1/3 155/1/3
f 159/1/3 158/1/3 157/1/3
f 159/1/3 157/1/3 156/1/3
f 160/1/3 158/1/3 159/1/3
f 165/1/3 162/1/3 161/1/3
f 166/1/3 162/1/3 165/1/3
f 167/2/3 164/2/3 163/2/3
f 168/2/3 164/2/3 167/2/3
f 173/1/3 170/1/3 169/1/3
f 174/1/3 170/1/3 173/1/3
f 175/2/3 172/2/3 171/2/3
f 176/2/3 172/2/3 175/2/3
f 179/1/3 178/1/3 177/1/3
f 180/1/3 178/1/3 179/1/3
f 183/1/3 182/1/3 181/1/3
f 184/1/3 182/1/3 183/1/3
f 187/2/3 186/2/3 185/2/3
f 188/2/3 186/2/3 187/2/3
f 191/2/3 190/2/3 189/2/3
f 192/2/3 190/2/3 191/2/3
f 193/2/4 194/2/4 195/2/4
f 195/2/4 194/2/4 196/2/4
f 197/2/4 198/2/4 199/2/4
f 199/2/4 198/2/4 200/2/4
f 201/1/4 202/1/4 203/1/4
f 203/1/4 202/1/4 204/1/4
f 205/1/4 206/1/4 207/1/4
f 207/1/4 206/1/4 208/1/4
f 209/1/4 210/1/4 213/1/4
f 213/1/4 210/1/4 214/1/4
f 211/2/4 212/2/4 215/2/4
f 215/2/4 212/2/4 216/2/4
f 217/1/4 218/1/4 221/1/4
f 221/1/4 218/1/4 222/1/4
f 219/2/4 220/2/4 223/2/4
f 223/2/4 220/2/4 224/2/4
f 225/1/4 226/1/4 227/1/4
f 227/1/4 226/1/4 228/1/4
f 228/1/4 226/1/4 229/1/4
f 229/1/4 226/1/4 230/1/4
f 228/1/4 229/1/4 231/1/4
f 228/1/4 231/1/4 233/1/4
f 231/1/4 232/1/4 233/1/4
f 233/1/4 232/1/4 234/1/4
f 235/1/4 236/1/4 237/1/4
f 237/1/4 236/1/4 238/1/4
f 235/1/4 237/1/4 240/1/4
f 240/1/4 237/1/4 241/1/4
f 239/1/4 240/1/4 243/1/4
f 241/1/4 242/1/4 243/1/4
f 240/1/4 241/1/4 243/1/4
f 243/1/4 242/1/4 244/1/4
f 247/2/4 248/2/4 249/2/4
f 249/2/4 248/2/4 250/2/4
f 245/1/4 246/1/4 253/1/4
f 253/1/4 246/1/4 254/1/4
f 251/2/4 252/2/4 255/2/4
f 255/2/4 252/2/4 256/2/4
f 260/1/5 258/1/5 257/1/5
f 261/1/5 258/1/5 260/1/5
f 264/1/5 260/1/5 259/1/5
f 264/1/5 262/1/5 261/1/5
f 264/1/5 261/1/5 260/1/5
f 265/1/5 262/1/5 264/1/5
f 267/1/5 264/1/5 263/1/5
f 267/1/5 266/1/5 265/1/5
f 267/1/5 265/1/5 264/1/5
f 268/1/5 266/1/5 267/1/5
f 269/1/5 266/1/5 268/1/5
f 270/1/5 266/1/5 269/1/5
f 271/1/5 269/1/5 268/1/5
f 272/1/5 269/1/5 271/1/5
f 273/1/5 269/1/5 272/1/5
f 274/1/5 269/1/5 273/1/5
f 275/1/5 273/1/5 272/1/5
f 276/1/5 273/1/5 275/1/5
f 281/2/5 278/2/5 277/2/5
f 282/2/5 278/2/5 281/2/5
f 283/2/5 280/2/5 279/2/5
f 284/2/5 280/2/5 283/2/5
f 289/2/5 286/2/5 285/2/5
f 290/2/5 286/2/5 289/2/5
f 291/2/5 288/2/5 287/2/5
f 292/2/5 288/2/5 291/2/5
f 297/2/5 294/2/5 293/2/5
f 298/2/5 294/2/5 297/2/5
f 299/2/5 296/2/5 295/2/5
f 300/2/5 296/2/5 299/2/5
f 305/2/5 302/2/5 301/2/5
f 306/2/5 302/2/5 305/2/5
f 307/2/5 304/2/5 303/2/5
f 308/2/5 304/2/5 307/2/5
f 309/1/6 310/1/6 311/1/6
f 311/1/6 310/1/6 312/1/6
f 312/1/6 310/1/6 313/1/6
f 313/1/6 310/1/6 314/1/6
f 315/1/6 316/1/6 319/1/6
f 312/1/6 313/1/6 320/1/6
f 320/1/6 313/1/6 321/1/6
f 317/1/6 318/1/6 322/1/6
f 320/1/6 321/1/6 323/1/6
f 321/1/6 322/1/6 323/1/6
f 315/1/6 319/1/6 323/1/6
f 319/1/6 320/1/6 323/1/6
f 323/1/6 322/1/6 324/1/6
f 324/1/6 322/1/6 325/1/6
f 322/1/6 318/1/6 326/1/6
f 325/1/6 322/1/6 326/1/6
f 315/1/6 323/1/6 327/1/6
f 327/1/6 323/1/6 328/1/6
f 326/1/6 318/1/6 329/1/6
f 329/1/6 318/1/6 330/1/6
f 324/1/6 325/1/6 332/1/6
f 332/1/6 325/1/6 333/1/6
f 331/1/6 332/1/6 335/1/6
f 333/1/6 334/1/6 335/1/6
f 332/1/6 333/1/6 335/1/6
f 335/1/6 334/1/6 336/1/6
f 337/2/6 338/2/6 342/2/6
f 342/2/6 338/2/6 343/2/6
f 339/2/6 340/2/6 346/2/6
f 346/2/6 340/2/6 347/2/6
f 343/1/6 344/1/6 350/1/6
f 341/1/6 342/1/6 350/1/6
f 342/1/6 343/1/6 350/1/6
f 347/1/6 348/1/6 351/1/6
f 346/1/6 347/1/6 351/1/6
f 345/1/6 346/1/6 351/1/6
f 349/2/6 350/2/6 353/2/6
f 350/1/6 344/1/6 354/1/6
f 353/2/6 350/2/6 354/2/6
f 351/2/6 352/2/6 355/2/6
f 345/1/6 351/1/6 355/1/6
f 355/2/6 352/2/6 356/2/6
f 354/1/6 344/1/6 357/1/6
f 357/1/6 344/1/6 358/1/6
f 345/1/6 355/1/6 359/1/6
f 359/1/6 355/1/6 360/1/6
f 361/1/6 362/1/6 366/1/6
f 363/1/6 364/1/6 367/1/6
f 365/2/6 366/2/6 369/2/6
f 366/1/6 362/1/6 370/1/6
f 369/2/6 366/2/6 370/2/6
f 363/1/6 367/1/6 371/1/6
f 367/2/6 368/2/6 371/2/6
f 371/2/6 368/2/6 372/2/6
f 370/1/6 362/1/6 373/1/6
f 373/1/6 362/1/6 374/1/6
f 374/1/6 362/1/6 375/1/6
f 375/1/6 362/1/6 376/1/6
f 363/1/6 371/1/6 377/1/6
f 377/1/6 371/1/6 378/1/6
f 378/1/6 371/1/6 379/1/6
f 379/1/6 371/1/6 380/1/6
f 374/2/6 375/2/6 381/2/6
f 381/2/6 375/2/6 382/2/6
f 378/2/6 379/2/6 383/2/6
f 383/2/6 379/2/6 384/2/6
