# MagicaVoxel @ Ephtracy

# group
g bridge-line

# material
mtllib bridge-line.mtl
usemtl palette

# normals
vn -1 0 0
vn 1 0 0
vn 0 0 1
vn 0 0 -1
vn 0 -1 0
vn 0 1 0

# texcoords
vt 0.966797 0.5
vt 0.986328 0.5

# verts
v -18 0 14
v -18 0 -14
v -18 1 14
v -18 1 -14
v -18 2 14
v -18 2 13
v -18 2 -13
v -18 2 -14
v -18 3 14
v -18 3 13
v -18 3 -13
v -18 3 -14
v -15 0 15
v -15 0 14
v -15 0 -14
v -15 0 -15
v -15 1 14
v -15 1 12
v -15 1 -12
v -15 1 -14
v -15 2 14
v -15 2 13
v -15 2 -13
v -15 2 -14
v -15 3 15
v -15 3 14
v -15 3 13
v -15 3 12
v -15 3 -12
v -15 3 -13
v -15 3 -14
v -15 3 -15
v -6 0 15
v -6 0 14
v -6 0 -14
v -6 0 -15
v -6 1 14
v -6 1 12
v -6 1 -12
v -6 1 -14
v -6 2 14
v -6 2 13
v -6 2 -13
v -6 2 -14
v -6 3 15
v -6 3 14
v -6 3 13
v -6 3 12
v -6 3 -12
v -6 3 -13
v -6 3 -14
v -6 3 -15
v 3 0 15
v 3 0 14
v 3 0 -14
v 3 0 -15
v 3 1 14
v 3 1 12
v 3 1 -12
v 3 1 -14
v 3 2 14
v 3 2 13
v 3 2 -13
v 3 2 -14
v 3 3 15
v 3 3 14
v 3 3 13
v 3 3 12
v 3 3 -12
v 3 3 -13
v 3 3 -14
v 3 3 -15
v 12 0 15
v 12 0 14
v 12 0 -14
v 12 0 -15
v 12 1 14
v 12 1 12
v 12 1 -12
v 12 1 -14
v 12 2 14
v 12 2 13
v 12 2 -13
v 12 2 -14
v 12 3 15
v 12 3 14
v 12 3 13
v 12 3 12
v 12 3 -12
v 12 3 -13
v 12 3 -14
v 12 3 -15
v -12 0 15
v -12 0 14
v -12 0 -14
v -12 0 -15
v -12 1 14
v -12 1 12
v -12 1 -12
v -12 1 -14
v -12 2 14
v -12 2 13
v -12 2 -13
v -12 2 -14
v -12 3 15
v -12 3 14
v -12 3 13
v -12 3 12
v -12 3 -12
v -12 3 -13
v -12 3 -14
v -12 3 -15
v -3 0 15
v -3 0 14
v -3 0 -14
v -3 0 -15
v -3 1 14
v -3 1 12
v -3 1 -12
v -3 1 -14
v -3 2 14
v -3 2 13
v -3 2 -13
v -3 2 -14
v -3 3 15
v -3 3 14
v -3 3 13
v -3 3 12
v -3 3 -12
v -3 3 -13
v -3 3 -14
v -3 3 -15
v 6 0 15
v 6 0 14
v 6 0 -14
v 6 0 -15
v 6 1 14
v 6 1 12
v 6 1 -12
v 6 1 -14
v 6 2 14
v 6 2 13
v 6 2 -13
v 6 2 -14
v 6 3 15
v 6 3 14
v 6 3 13
v 6 3 12
v 6 3 -12
v 6 3 -13
v 6 3 -14
v 6 3 -15
v 15 0 15
v 15 0 14
v 15 0 -14
v 15 0 -15
v 15 1 14
v 15 1 12
v 15 1 -12
v 15 1 -14
v 15 2 14
v 15 2 13
v 15 2 -13
v 15 2 -14
v 15 3 15
v 15 3 14
v 15 3 13
v 15 3 12
v 15 3 -12
v 15 3 -13
v 15 3 -14
v 15 3 -15
v 18 0 14
v 18 0 -14
v 18 1 14
v 18 1 -14
v 18 2 14
v 18 2 13
v 18 2 -13
v 18 2 -14
v 18 3 14
v 18 3 13
v 18 3 -13
v 18 3 -14
v -15 0 15
v -15 3 15
v -12 0 15
v -12 3 15
v -6 0 15
v -6 3 15
v -3 0 15
v -3 3 15
v 3 0 15
v 3 3 15
v 6 0 15
v 6 3 15
v 12 0 15
v 12 3 15
v 15 0 15
v 15 3 15
v -18 0 14
v -18 1 14
v -18 2 14
v -18 3 14
v -15 0 14
v -15 1 14
v -15 2 14
v -15 3 14
v -12 0 14
v -12 1 14
v -12 2 14
v -12 3 14
v -6 0 14
v -6 1 14
v -6 2 14
v -6 3 14
v -3 0 14
v -3 1 14
v -3 2 14
v -3 3 14
v 3 0 14
v 3 1 14
v 3 2 14
v 3 3 14
v 6 0 14
v 6 1 14
v 6 2 14
v 6 3 14
v 12 0 14
v 12 1 14
v 12 2 14
v 12 3 14
v 15 0 14
v 15 1 14
v 15 2 14
v 15 3 14
v 18 0 14
v 18 1 14
v 18 2 14
v 18 3 14
v -15 1 -12
v -15 3 -12
v -12 1 -12
v -12 3 -12
v -6 1 -12
v -6 3 -12
v -3 1 -12
v -3 3 -12
v 3 1 -12
v 3 3 -12
v 6 1 -12
v 6 3 -12
v 12 1 -12
v 12 3 -12
v 15 1 -12
v 15 3 -12
v -18 2 -13
v -18 3 -13
v -15 2 -13
v -15 3 -13
v -12 2 -13
v -12 3 -13
v -6 2 -13
v -6 3 -13
v -3 2 -13
v -3 3 -13
v 3 2 -13
v 3 3 -13
v 6 2 -13
v 6 3 -13
v 12 2 -13
v 12 3 -13
v 15 2 -13
v 15 3 -13
v 18 2 -13
v 18 3 -13
v -18 2 13
v -18 3 13
v -15 2 13
v -15 3 13
v -12 2 13
v -12 3 13
v -6 2 13
v -6 3 13
v -3 2 13
v -3 3 13
v 3 2 13
v 3 3 13
v 6 2 13
v 6 3 13
v 12 2 13
v 12 3 13
v 15 2 13
v 15 3 13
v 18 2 13
v 18 3 13
v -15 1 12
v -15 3 12
v -12 1 12
v -12 3 12
v -6 1 12
v -6 3 12
v -3 1 12
v -3 3 12
v 3 1 12
v 3 3 12
v 6 1 12
v 6 3 12
v 12 1 12
v 12 3 12
v 15 1 12
v 15 3 12
v -18 0 -14
v -18 1 -14
v -18 2 -14
v -18 3 -14
v -15 0 -14
v -15 1 -14
v -15 2 -14
v -15 3 -14
v -12 0 -14
v -12 1 -14
v -12 2 -14
v -12 3 -14
v -6 0 -14
v -6 1 -14
v -6 2 -14
v -6 3 -14
v -3 0 -14
v -3 1 -14
v -3 2 -14
v -3 3 -14
v 3 0 -14
v 3 1 -14
v 3 2 -14
v 3 3 -14
v 6 0 -14
v 6 1 -14
v 6 2 -14
v 6 3 -14
v 12 0 -14
v 12 1 -14
v 12 2 -14
v 12 3 -14
v 15 0 -14
v 15 1 -14
v 15 2 -14
v 15 3 -14
v 18 0 -14
v 18 1 -14
v 18 2 -14
v 18 3 -14
v -15 0 -15
v -15 3 -15
v -12 0 -15
v -12 3 -15
v -6 0 -15
v -6 3 -15
v -3 0 -15
v -3 3 -15
v 3 0 -15
v 3 3 -15
v 6 0 -15
v 6 3 -15
v 12 0 -15
v 12 3 -15
v 15 0 -15
v 15 3 -15
v -15 0 15
v -12 0 15
v -6 0 15
v -3 0 15
v 3 0 15
v 6 0 15
v 12 0 15
v 15 0 15
v -18 0 14
v -15 0 14
v -12 0 14
v -6 0 14
v -3 0 14
v 3 0 14
v 6 0 14
v 12 0 14
v 15 0 14
v 18 0 14
v -18 0 -14
v -15 0 -14
v -12 0 -14
v -6 0 -14
v -3 0 -14
v 3 0 -14
v 6 0 -14
v 12 0 -14
v 15 0 -14
v 18 0 -14
v -15 0 -15
v -12 0 -15
v -6 0 -15
v -3 0 -15
v 3 0 -15
v 6 0 -15
v 12 0 -15
v 15 0 -15
v -18 2 14
v -15 2 14
v -12 2 14
v -6 2 14
v -3 2 14
v 3 2 14
v 6 2 14
v 12 2 14
v 15 2 14
v 18 2 14
v -18 2 13
v -15 2 13
v -12 2 13
v -6 2 13
v -3 2 13
v 3 2 13
v 6 2 13
v 12 2 13
v 15 2 13
v 18 2 13
v -18 2 -13
v -15 2 -13
v -12 2 -13
v -6 2 -13
v -3 2 -13
v 3 2 -13
v 6 2 -13
v 12 2 -13
v 15 2 -13
v 18 2 -13
v -18 2 -14
v -15 2 -14
v -12 2 -14
v -6 2 -14
v -3 2 -14
v 3 2 -14
v 6 2 -14
v 12 2 -14
v 15 2 -14
v 18 2 -14
v -18 1 14
v -15 1 14
v -12 1 14
v -6 1 14
v -3 1 14
v 3 1 14
v 6 1 14
v 12 1 14
v 15 1 14
v 18 1 14
v -15 1 12
v -12 1 12
v -6 1 12
v -3 1 12
v 3 1 12
v 6 1 12
v 12 1 12
v 15 1 12
v -15 1 -12
v -12 1 -12
v -6 1 -12
v -3 1 -12
v 3 1 -12
v 6 1 -12
v 12 1 -12
v 15 1 -12
v -18 1 -14
v -15 1 -14
v -12 1 -14
v -6 1 -14
v -3 1 -14
v 3 1 -14
v 6 1 -14
v 12 1 -14
v 15 1 -14
v 18 1 -14
v -15 3 15
v -12 3 15
v -6 3 15
v -3 3 15
v 3 3 15
v 6 3 15
v 12 3 15
v 15 3 15
v -18 3 14
v -15 3 14
v -12 3 14
v -6 3 14
v -3 3 14
v 3 3 14
v 6 3 14
v 12 3 14
v 15 3 14
v 18 3 14
v -18 3 13
v -15 3 13
v -12 3 13
v -6 3 13
v -3 3 13
v 3 3 13
v 6 3 13
v 12 3 13
v 15 3 13
v 18 3 13
v -15 3 12
v -12 3 12
v -6 3 12
v -3 3 12
v 3 3 12
v 6 3 12
v 12 3 12
v 15 3 12
v -15 3 -12
v -12 3 -12
v -6 3 -12
v -3 3 -12
v 3 3 -12
v 6 3 -12
v 12 3 -12
v 15 3 -12
v -18 3 -13
v -15 3 -13
v -12 3 -13
v -6 3 -13
v -3 3 -13
v 3 3 -13
v 6 3 -13
v 12 3 -13
v 15 3 -13
v 18 3 -13
v -18 3 -14
v -15 3 -14
v -12 3 -14
v -6 3 -14
v -3 3 -14
v 3 3 -14
v 6 3 -14
v 12 3 -14
v 15 3 -14
v 18 3 -14
v -15 3 -15
v -12 3 -15
v -6 3 -15
v -3 3 -15
v 3 3 -15
v 6 3 -15
v 12 3 -15
v 15 3 -15

# faces
f 3/1/1 2/1/1 1/1/1
f 4/1/1 2/1/1 3/1/1
f 9/2/1 6/2/1 5/2/1
f 10/2/1 6/2/1 9/2/1
f 11/2/1 8/2/1 7/2/1
f 12/2/1 8/2/1 11/2/1
f 17/1/1 14/1/1 13/1/1
f 20/1/1 16/1/1 15/1/1
f 21/1/1 18/1/1 17/1/1
f 21/1/1 17/1/1 13/1/1
f 22/1/1 18/1/1 21/1/1
f 23/1/1 20/1/1 19/1/1
f 24/1/1 16/1/1 20/1/1
f 24/1/1 20/1/1 23/1/1
f 25/1/1 21/1/1 13/1/1
f 26/1/1 21/1/1 25/1/1
f 27/1/1 18/1/1 22/1/1
f 28/1/1 18/1/1 27/1/1
f 29/1/1 23/1/1 19/1/1
f 30/1/1 23/1/1 29/1/1
f 31/1/1 16/1/1 24/1/1
f 32/1/1 16/1/1 31/1/1
f 37/1/1 34/1/1 33/1/1
f 40/1/1 36/1/1 35/1/1
f 41/1/1 38/1/1 37/1/1
f 41/1/1 37/1/1 33/1/1
f 42/1/1 38/1/1 41/1/1
f 43/1/1 40/1/1 39/1/1
f 44/1/1 36/1/1 40/1/1
f 44/1/1 40/1/1 43/1/1
f 45/1/1 41/1/1 33/1/1
f 46/1/1 41/1/1 45/1/1
f 47/1/1 38/1/1 42/1/1
f 48/1/1 38/1/1 47/1/1
f 49/1/1 43/1/1 39/1/1
f 50/1/1 43/1/1 49/1/1
f 51/1/1 36/1/1 44/1/1
f 52/1/1 36/1/1 51/1/1
f 57/1/1 54/1/1 53/1/1
f 60/1/1 56/1/1 55/1/1
f 61/1/1 58/1/1 57/1/1
f 61/1/1 57/1/1 53/1/1
f 62/1/1 58/1/1 61/1/1
f 63/1/1 60/1/1 59/1/1
f 64/1/1 56/1/1 60/1/1
f 64/1/1 60/1/1 63/1/1
f 65/1/1 61/1/1 53/1/1
f 66/1/1 61/1/1 65/1/1
f 67/1/1 58/1/1 62/1/1
f 68/1/1 58/1/1 67/1/1
f 69/1/1 63/1/1 59/1/1
f 70/1/1 63/1/1 69/1/1
f 71/1/1 56/1/1 64/1/1
f 72/1/1 56/1/1 71/1/1
f 77/1/1 74/1/1 73/1/1
f 80/1/1 76/1/1 75/1/1
f 81/1/1 78/1/1 77/1/1
f 81/1/1 77/1/1 73/1/1
f 82/1/1 78/1/1 81/1/1
f 83/1/1 80/1/1 79/1/1
f 84/1/1 76/1/1 80/1/1
f 84/1/1 80/1/1 83/1/1
f 85/1/1 81/1/1 73/1/1
f 86/1/1 81/1/1 85/1/1
f 87/1/1 78/1/1 82/1/1
f 88/1/1 78/1/1 87/1/1
f 89/1/1 83/1/1 79/1/1
f 90/1/1 83/1/1 89/1/1
f 91/1/1 76/1/1 84/1/1
f 92/1/1 76/1/1 91/1/1
f 93/1/2 94/1/2 97/1/2
f 95/1/2 96/1/2 100/1/2
f 97/1/2 98/1/2 101/1/2
f 93/1/2 97/1/2 101/1/2
f 101/1/2 98/1/2 102/1/2
f 99/1/2 100/1/2 103/1/2
f 100/1/2 96/1/2 104/1/2
f 103/1/2 100/1/2 104/1/2
f 93/1/2 101/1/2 105/1/2
f 105/1/2 101/1/2 106/1/2
f 102/1/2 98/1/2 107/1/2
f 107/1/2 98/1/2 108/1/2
f 99/1/2 103/1/2 109/1/2
f 109/1/2 103/1/2 110/1/2
f 104/1/2 96/1/2 111/1/2
f 111/1/2 96/1/2 112/1/2
f 113/1/2 114/1/2 117/1/2
f 115/1/2 116/1/2 120/1/2
f 117/1/2 118/1/2 121/1/2
f 113/1/2 117/1/2 121/1/2
f 121/1/2 118/1/2 122/1/2
f 119/1/2 120/1/2 123/1/2
f 120/1/2 116/1/2 124/1/2
f 123/1/2 120/1/2 124/1/2
f 113/1/2 121/1/2 125/1/2
f 125/1/2 121/1/2 126/1/2
f 122/1/2 118/1/2 127/1/2
f 127/1/2 118/1/2 128/1/2
f 119/1/2 123/1/2 129/1/2
f 129/1/2 123/1/2 130/1/2
f 124/1/2 116/1/2 131/1/2
f 131/1/2 116/1/2 132/1/2
f 133/1/2 134/1/2 137/1/2
f 135/1/2 136/1/2 140/1/2
f 137/1/2 138/1/2 141/1/2
f 133/1/2 137/1/2 141/1/2
f 141/1/2 138/1/2 142/1/2
f 139/1/2 140/1/2 143/1/2
f 140/1/2 136/1/2 144/1/2
f 143/1/2 140/1/2 144/1/2
f 133/1/2 141/1/2 145/1/2
f 145/1/2 141/1/2 146/1/2
f 142/1/2 138/1/2 147/1/2
f 147/1/2 138/1/2 148/1/2
f 139/1/2 143/1/2 149/1/2
f 149/1/2 143/1/2 150/1/2
f 144/1/2 136/1/2 151/1/2
f 151/1/2 136/1/2 152/1/2
f 153/1/2 154/1/2 157/1/2
f 155/1/2 156/1/2 160/1/2
f 157/1/2 158/1/2 161/1/2
f 153/1/2 157/1/2 161/1/2
f 161/1/2 158/1/2 162/1/2
f 159/1/2 160/1/2 163/1/2
f 160/1/2 156/1/2 164/1/2
f 163/1/2 160/1/2 164/1/2
f 153/1/2 161/1/2 165/1/2
f 165/1/2 161/1/2 166/1/2
f 162/1/2 158/1/2 167/1/2
f 167/1/2 158/1/2 168/1/2
f 159/1/2 163/1/2 169/1/2
f 169/1/2 163/1/2 170/1/2
f 164/1/2 156/1/2 171/1/2
f 171/1/2 156/1/2 172/1/2
f 173/1/2 174/1/2 175/1/2
f 175/1/2 174/1/2 176/1/2
f 177/2/2 178/2/2 181/2/2
f 181/2/2 178/2/2 182/2/2
f 179/2/2 180/2/2 183/2/2
f 183/2/2 180/2/2 184/2/2
f 187/1/3 186/1/3 185/1/3
f 188/1/3 186/1/3 187/1/3
f 191/1/3 190/1/3 189/1/3
f 192/1/3 190/1/3 191/1/3
f 195/1/3 194/1/3 193/1/3
f 196/1/3 194/1/3 195/1/3
f 199/1/3 198/1/3 197/1/3
f 200/1/3 198/1/3 199/1/3
f 205/1/3 202/1/3 201/1/3
f 206/1/3 202/1/3 205/1/3
f 207/2/3 204/2/3 203/2/3
f 208/2/3 204/2/3 207/2/3
f 213/1/3 210/1/3 209/1/3
f 214/1/3 210/1/3 213/1/3
f 215/2/3 212/2/3 211/2/3
f 216/2/3 212/2/3 215/2/3
f 221/1/3 218/1/3 217/1/3
f 222/1/3 218/1/3 221/1/3
f 223/2/3 220/2/3 219/2/3
f 224/2/3 220/2/3 223/2/3
f 229/1/3 226/1/3 225/1/3
f 230/1/3 226/1/3 229/1/3
f 231/2/3 228/2/3 227/2/3
f 232/2/3 228/2/3 231/2/3
f 237/1/3 234/1/3 233/1/3
f 238/1/3 234/1/3 237/1/3
f 239/2/3 236/2/3 235/2/3
f 240/2/3 236/2/3 239/2/3
f 243/1/3 242/1/3 241/1/3
f 244/1/3 242/1/3 243/1/3
f 247/1/3 246/1/3 245/1/3
f 248/1/3 246/1/3 247/1/3
f 251/1/3 250/1/3 249/1/3
f 252/1/3 250/1/3 251/1/3
f 255/1/3 254/1/3 253/1/3
f 256/1/3 254/1/3 255/1/3
f 259/2/3 258/2/3 257/2/3
f 260/2/3 258/2/3 259/2/3
f 263/2/3 262/2/3 261/2/3
f 264/2/3 262/2/3 263/2/3
f 267/2/3 266/2/3 265/2/3
f 268/2/3 266/2/3 267/2/3
f 271/2/3 270/2/3 269/2/3
f 272/2/3 270/2/3 271/2/3
f 275/2/3 274/2/3 273/2/3
f 276/2/3 274/2/3 275/2/3
f 277/2/4 278/2/4 279/2/4
f 279/2/4 278/2/4 280/2/4
f 281/2/4 282/2/4 283/2/4
f 283/2/4 282/2/4 284/2/4
f 285/2/4 286/2/4 287/2/4
f 287/2/4 286/2/4 288/2/4
f 289/2/4 290/2/4 291/2/4
f 291/2/4 290/2/4 292/2/4
f 293/2/4 294/2/4 295/2/4
f 295/2/4 294/2/4 296/2/4
f 297/1/4 298/1/4 299/1/4
f 299/1/4 298/1/4 300/1/4
f 301/1/4 302/1/4 303/1/4
f 303/1/4 302/1/4 304/1/4
f 305/1/4 306/1/4 307/1/4
f 307/1/4 306/1/4 308/1/4
f 309/1/4 310/1/4 311/1/4
f 311/1/4 310/1/4 312/1/4
f 313/1/4 314/1/4 317/1/4
f 317/1/4 314/1/4 318/1/4
f 315/2/4 316/2/4 319/2/4
f 319/2/4 316/2/4 320/2/4
f 321/1/4 322/1/4 325/1/4
f 325/1/4 322/1/4 326/1/4
f 323/2/4 324/2/4 327/2/4
f 327/2/4 324/2/4 328/2/4
f 329/1/4 330/1/4 333/1/4
f 333/1/4 330/1/4 334/1/4
f 331/2/4 332/2/4 335/2/4
f 335/2/4 332/2/4 336/2/4
f 337/1/4 338/1/4 341/1/4
f 341/1/4 338/1/4 342/1/4
f 339/2/4 340/2/4 343/2/4
f 343/2/4 340/2/4 344/2/4
f 345/1/4 346/1/4 349/1/4
f 349/1/4 346/1/4 350/1/4
f 347/2/4 348/2/4 351/2/4
f 351/2/4 348/2/4 352/2/4
f 353/1/4 354/1/4 355/1/4
f 355/1/4 354/1/4 356/1/4
f 357/1/4 358/1/4 359/1/4
f 359/1/4 358/1/4 360/1/4
f 361/1/4 362/1/4 363/1/4
f 363/1/4 362/1/4 364/1/4
f 365/1/4 366/1/4 367/1/4
f 367/1/4 366/1/4 368/1/4
f 378/1/5 370/1/5 369/1/5
f 379/1/5 370/1/5 378/1/5
f 380/1/5 372/1/5 371/1/5
f 381/1/5 372/1/5 380/1/5
f 382/1/5 374/1/5 373/1/5
f 383/1/5 374/1/5 382/1/5
f 384/1/5 376/1/5 375/1/5
f 385/1/5 376/1/5 384/1/5
f 387/1/5 383/1/5 382/1/5
f 387/1/5 386/1/5 385/1/5
f 387/1/5 385/1/5 384/1/5
f 387/1/5 384/1/5 383/1/5
f 387/1/5 379/1/5 378/1/5
f 387/1/5 382/1/5 381/1/5
f 387/1/5 381/1/5 380/1/5
f 387/1/5 380/1/5 379/1/5
f 387/1/5 378/1/5 377/1/5
f 388/1/5 386/1/5 387/1/5
f 389/1/5 386/1/5 388/1/5
f 390/1/5 386/1/5 389/1/5
f 391/1/5 386/1/5 390/1/5
f 392/1/5 386/1/5 391/1/5
f 393/1/5 386/1/5 392/1/5
f 394/1/5 386/1/5 393/1/5
f 395/1/5 386/1/5 394/1/5
f 396/1/5 386/1/5 395/1/5
f 397/1/5 389/1/5 388/1/5
f 398/1/5 389/1/5 397/1/5
f 399/1/5 391/1/5 390/1/5
f 400/1/5 391/1/5 399/1/5
f 401/1/5 393/1/5 392/1/5
f 402/1/5 393/1/5 401/1/5
f 403/1/5 395/1/5 394/1/5
f 404/1/5 395/1/5 403/1/5
f 415/2/5 406/2/5 405/2/5
f 416/2/5 406/2/5 415/2/5
f 417/2/5 408/2/5 407/2/5
f 418/2/5 408/2/5 417/2/5
f 419/2/5 410/2/5 409/2/5
f 420/2/5 410/2/5 419/2/5
f 421/2/5 412/2/5 411/2/5
f 422/2/5 412/2/5 421/2/5
f 423/2/5 414/2/5 413/2/5
f 424/2/5 414/2/5 423/2/5
f 435/2/5 426/2/5 425/2/5
f 436/2/5 426/2/5 435/2/5
f 437/2/5 428/2/5 427/2/5
f 438/2/5 428/2/5 437/2/5
f 439/2/5 430/2/5 429/2/5
f 440/2/5 430/2/5 439/2/5
f 441/2/5 432/2/5 431/2/5
f 442/2/5 432/2/5 441/2/5
f 443/2/5 434/2/5 433/2/5
f 444/2/5 434/2/5 443/2/5
f 445/1/6 446/1/6 455/1/6
f 447/1/6 448/1/6 456/1/6
f 456/1/6 448/1/6 457/1/6
f 449/1/6 450/1/6 458/1/6
f 458/1/6 450/1/6 459/1/6
f 451/1/6 452/1/6 460/1/6
f 460/1/6 452/1/6 461/1/6
f 453/1/6 454/1/6 462/1/6
f 460/1/6 461/1/6 463/1/6
f 461/1/6 462/1/6 463/1/6
f 445/1/6 455/1/6 463/1/6
f 456/1/6 457/1/6 463/1/6
f 459/1/6 460/1/6 463/1/6
f 458/1/6 459/1/6 463/1/6
f 457/1/6 458/1/6 463/1/6
f 455/1/6 456/1/6 463/1/6
f 463/1/6 462/1/6 464/1/6
f 464/1/6 462/1/6 465/1/6
f 465/1/6 462/1/6 466/1/6
f 466/1/6 462/1/6 467/1/6
f 467/1/6 462/1/6 468/1/6
f 468/1/6 462/1/6 469/1/6
f 462/1/6 454/1/6 470/1/6
f 469/1/6 462/1/6 470/1/6
f 445/1/6 463/1/6 471/1/6
f 471/1/6 463/1/6 472/1/6
f 464/1/6 465/1/6 473/1/6
f 473/1/6 465/1/6 474/1/6
f 466/1/6 467/1/6 475/1/6
f 475/1/6 467/1/6 476/1/6
f 468/1/6 469/1/6 477/1/6
f 477/1/6 469/1/6 478/1/6
f 470/1/6 454/1/6 479/1/6
f 479/1/6 454/1/6 480/1/6
f 481/1/6 482/1/6 490/1/6
f 490/1/6 482/1/6 491/1/6
f 483/1/6 484/1/6 492/1/6
f 492/1/6 484/1/6 493/1/6
f 485/1/6 486/1/6 494/1/6
f 494/1/6 486/1/6 495/1/6
f 487/1/6 488/1/6 496/1/6
f 496/1/6 488/1/6 497/1/6
f 489/2/6 490/2/6 499/2/6
f 490/1/6 491/1/6 500/1/6
f 499/2/6 490/2/6 500/2/6
f 491/2/6 492/2/6 501/2/6
f 500/1/6 491/1/6 501/1/6
f 492/1/6 493/1/6 502/1/6
f 501/2/6 492/2/6 502/2/6
f 493/2/6 494/2/6 503/2/6
f 502/1/6 493/1/6 503/1/6
f 494/1/6 495/1/6 504/1/6
f 503/2/6 494/2/6 504/2/6
f 495/2/6 496/2/6 505/2/6
f 504/1/6 495/1/6 505/1/6
f 496/1/6 497/1/6 506/1/6
f 505/2/6 496/2/6 506/2/6
f 497/2/6 498/2/6 507/2/6
f 506/1/6 497/1/6 507/1/6
f 507/2/6 498/2/6 508/2/6
f 500/1/6 501/1/6 509/1/6
f 509/1/6 501/1/6 510/1/6
f 502/1/6 503/1/6 511/1/6
f 511/1/6 503/1/6 512/1/6
f 504/1/6 505/1/6 513/1/6
f 513/1/6 505/1/6 514/1/6
f 506/1/6 507/1/6 515/1/6
f 515/1/6 507/1/6 516/1/6
f 517/1/6 518/1/6 526/1/6
f 526/1/6 518/1/6 527/1/6
f 519/1/6 520/1/6 528/1/6
f 528/1/6 520/1/6 529/1/6
f 521/1/6 522/1/6 530/1/6
f 530/1/6 522/1/6 531/1/6
f 523/1/6 524/1/6 532/1/6
f 532/1/6 524/1/6 533/1/6
f 525/2/6 526/2/6 535/2/6
f 526/1/6 527/1/6 536/1/6
f 535/2/6 526/2/6 536/2/6
f 527/2/6 528/2/6 537/2/6
f 536/1/6 527/1/6 537/1/6
f 528/1/6 529/1/6 538/1/6
f 537/2/6 528/2/6 538/2/6
f 529/2/6 530/2/6 539/2/6
f 538/1/6 529/1/6 539/1/6
f 530/1/6 531/1/6 540/1/6
f 539/2/6 530/2/6 540/2/6
f 531/2/6 532/2/6 541/2/6
f 540/1/6 531/1/6 541/1/6
f 532/1/6 533/1/6 542/1/6
f 541/2/6 532/2/6 542/2/6
f 533/2/6 534/2/6 543/2/6
f 542/1/6 533/1/6 543/1/6
f 543/2/6 534/2/6 544/2/6
f 536/1/6 537/1/6 545/1/6
f 545/1/6 537/1/6 546/1/6
f 538/1/6 539/1/6 547/1/6
f 547/1/6 539/1/6 548/1/6
f 540/1/6 541/1/6 549/1/6
f 549/1/6 541/1/6 550/1/6
f 542/1/6 543/1/6 551/1/6
f 551/1/6 543/1/6 552/1/6
